<svg height="512" viewBox="0 0 512 512" width="512" xmlns="http://www.w3.org/2000/svg"><path d="m480 481a8 8 0 0 1 -8-8v-88a8 8 0 0 1 16 0v88a8 8 0 0 1 -8 8z" fill="#a98e72"/><path d="m240 273-24.5 12.251a16 16 0 0 0 -8.684 12.048l-6.816 47.701h112l-6.814-47.7a16 16 0 0 0 -8.684-12.048l-24.502-12.252z" fill="#69b9e7"/><path d="m32 481a8 8 0 0 1 -8-8v-72a8 8 0 0 1 16 0v72a8 8 0 0 1 -8 8z" fill="#a98e72"/><path d="m120 377h32v96h-32z" fill="#8e7760"/><path d="m360 377h32v96h-32z" fill="#8e7760"/><path d="m120 377h32v16h-32z" fill="#746250"/><path d="m360 377h32v16h-32z" fill="#746250"/><path d="m232 305h48v40h-48z" fill="#cdcdcd"/><path d="m456 361-64 40 40 72h16l-16-64 56-24v-24z" fill="#a8e6c7"/><path d="m392 353h-40a8 8 0 0 1 -7.891-6.684l-8-48a8 8 0 0 1 15.782-2.632l6.886 41.316h33.223a8 8 0 0 1 0 16z" fill="#d9d9d9"/><path d="m120 353h40a8 8 0 0 0 7.891-6.684l8-48a8 8 0 1 0 -15.781-2.632l-6.888 41.316h-33.222a8 8 0 0 0 0 16z" fill="#d9d9d9"/><path d="m56 369 40 24 24 80h-32l-16-56-48-16v-32z" fill="#bef5fa"/><path d="m46.28 291.168 49.72 29.832h32v24h-40l-32-16z" fill="#bef5fa"/><path d="m272 473h-32l-8-64-11.314-11.314a16 16 0 0 1 -4.686-11.313v-9.373h80v9.373a16 16 0 0 1 -4.686 11.313l-11.314 11.314z" fill="#69b9e7"/><path d="m368 49h-80a16 16 0 0 0 -16 16v48a16 16 0 0 0 16 16v32l48-32h32a16 16 0 0 0 16-16v-48a16 16 0 0 0 -16-16z" fill="#fdb62f"/><path d="m64 153v32l48-32h40a16 16 0 0 0 16-16v-48a16 16 0 0 0 -16-16h-96a16 16 0 0 0 -16 16v48a16 16 0 0 0 16 16z" fill="#fcd795"/><path d="m344 81h80a16 16 0 0 1 16 16v48a16 16 0 0 1 -16 16v32l-48-32h-32a16 16 0 0 1 -16-16v-48a16 16 0 0 1 16-16z" fill="#fdb62f"/><path d="m344 81a16 16 0 0 0 -16 16v37.333l8-5.333h32a16 16 0 0 0 16-16v-32z" fill="#ec9e15"/><g fill="#fdb62f"><path d="m64 105h16v16h-16z"/><path d="m96 105h16v16h-16z"/><path d="m128 105h16v16h-16z"/></g><path d="m16 465h480v16h-480z" fill="#746250"/><circle cx="256" cy="225" fill="#69b9e7" r="24"/><circle cx="464" cy="241" fill="#a8e6c7" r="24"/><circle cx="48" cy="241" fill="#bef5fa" r="24"/><path d="m40 289a16 16 0 0 0 -16 16v64h32v-64a16 16 0 0 0 -16-16z" fill="#bef5fa"/><path d="m472 289a16 16 0 0 1 16 16v56h-32v-56a16 16 0 0 1 16-16z" fill="#a8e6c7"/><path d="m464 292.2-48 28.8h-32v24h40l32-16z" fill="#a8e6c7"/><path d="m112 345h288v32h-288z" fill="#a98e72"/></svg>